<?xml version="1.0" encoding="UTF-8"?>
<svg viewBox="0 0 117.92 131.58">
  <g>
    <path
      d="M58.96,131.08c-2.5,0-4.96-.66-7.13-1.91L7.63,103.65c-4.4-2.53-7.13-7.26-7.13-12.35v-51.03c0-5.08,2.73-9.81,7.13-12.35L51.83,2.41c2.17-1.25,4.63-1.91,7.13-1.91s4.96.66,7.13,1.91l44.31,25.58h0c4.33,2.55,7.01,7.24,7.01,12.28v51.03c0,5.08-2.73,9.81-7.13,12.35l-44.2,25.52c-2.17,1.25-4.63,1.91-7.13,1.91Z" />
    <path
      d="M58.96,1c2.41,0,4.79.64,6.88,1.85l44.19,25.51.18.1c4.14,2.47,6.71,6.97,6.71,11.81v51.03c0,4.9-2.64,9.46-6.88,11.91l-44.2,25.52c-2.09,1.21-4.47,1.85-6.88,1.85s-4.79-.64-6.88-1.85L7.88,103.21c-4.24-2.44-6.88-7.01-6.88-11.91v-51.03c0-4.9,2.64-9.46,6.88-11.91L52.08,2.85c2.09-1.21,4.47-1.85,6.88-1.85M58.96,0c-2.55,0-5.1.66-7.38,1.98L7.38,27.49c-4.57,2.64-7.38,7.51-7.38,12.78v51.03c0,5.27,2.81,10.15,7.38,12.78l44.2,25.52c2.28,1.32,4.83,1.98,7.38,1.98s5.09-.66,7.38-1.98l44.2-25.52c4.57-2.64,7.38-7.51,7.38-12.78v-51.03c0-5.27-2.81-10.15-7.38-12.78h0L66.34,1.98c-2.29-1.32-4.83-1.98-7.38-1.98h0Z" />
  </g>
</svg>
