<?xml version="1.0" encoding="UTF-8"?>
<svg id="Camada_2" data-name="Camada 2" xmlns="http://www.w3.org/2000/svg" viewBox="0 0 117.91 131.59">
  <defs>
    <style>
      .cls-1 {
        fill: #FFFFFF50;
      }
    </style>
  </defs>
  <g id="Camada_1-2" data-name="Camada 1">
    <path class="cls-1"
      d="M110.53,27.49L66.34,1.98c-4.57-2.64-10.19-2.64-14.76,0L7.38,27.49c-4.57,2.64-7.38,7.51-7.38,12.78v51.03c0,5.27,2.81,10.15,7.38,12.78l44.2,25.52c4.57,2.64,10.19,2.64,14.76,0l44.2-25.52c4.57-2.64,7.38-7.51,7.38-12.78v-51.03c0-5.27-2.81-10.15-7.38-12.78ZM99.46,89.18l-40.51,23.39-40.51-23.39v-46.77l40.51-23.39,40.51,23.39v46.77Z" />
  </g>
</svg>
